<?xml version="1.0" standalone="no"?>
<!DOCTYPE svg PUBLIC "-//W3C//DTD SVG 20010904//EN"
 "http://www.w3.org/TR/2001/REC-SVG-20010904/DTD/svg10.dtd">
<svg version="1.0" xmlns="http://www.w3.org/2000/svg"
 width="16.000000pt" height="16.000000pt" viewBox="0 0 16.000000 16.000000"
 preserveAspectRatio="xMidYMid meet">

<g transform="translate(0.000000,16.000000) scale(0.100000,-0.100000)"
fill="#000000" stroke="none">
<path d="M0 80 l0 -60 80 0 80 0 0 60 0 60 -80 0 -80 0 0 -60z m115 25 c-16
-14 -32 -25 -35 -25 -3 0 -18 11 -35 25 l-30 24 65 0 65 0 -30 -24z m-47 -31
c13 -7 26 -2 60 23 l23 16 -3 -39 -3 -39 -65 0 -65 0 -3 39 -3 39 23 -16 c13
-10 29 -20 36 -23z"/>
</g>
</svg>
